# xmcd
#
# Track frame offsets:
#	150
#	9827
#	13655
#	24497
#	31867
#	41972
#	51227
#	56395
#	64452
#	72610
#	77787
#	85027
#	93280
#	104287
#	116677
#
# Disc length: 1751 seconds
#
# Revision: 1
# Processed by: cddbd v1.5.1PL0 Copyright (c) Steve Scherf et al.
# Submitted via: EasyCDDAExtractor 8.0.2.1
#
DISCID=bf06d50f
DTITLE=2 Live Crew - The Best Remixes' [Import Japan]
DYEAR=1990
DGENRE=Rap
TTITLE0=Banned In The U.S.A
TTITLE1=Get Loose Now
TTITLE2=Throw The 'D'
TTITLE3=Mamolapenga
TTITLE4=Do Wah Diddy
TTITLE5=We Want Some P---y
TTITLE6=Move Somethin'
TTITLE7=Face Down A-- Up
TTITLE8=Do The Bart
TTITLE9=C'mon Babe
TTITLE10=Me So Horny
TTITLE11=F--k Martinez
TTITLE12=The F--k Shop
TTITLE13=S and M
TTITLE14=Fraternity Record
EXTD=
EXTT0=
EXTT1=
EXTT2=
EXTT3=
EXTT4=
EXTT5=
EXTT6=
EXTT7=
EXTT8=
EXTT9=
EXTT10=
EXTT11=
EXTT12=
EXTT13=
EXTT14=
PLAYORDER=
